<svg xmlns="http://www.w3.org/2000/svg" width="446.648" height="372.597" viewBox="0 0 446.648 372.597">
  <g id="undraw_Chatting_re_j55r" transform="translate(0.5 0)">
    <ellipse id="Ellipse_4" data-name="Ellipse 4" cx="176" cy="9" rx="176" ry="9" transform="translate(33.322 354.597)" fill="#fb0"/>
    <path id="Tracé_22" data-name="Tracé 22" d="M597.2,163.877h-2V109.1a31.7,31.7,0,0,0-31.7-31.7H447.461a31.7,31.7,0,0,0-31.7,31.7V409.591a31.7,31.7,0,0,0,31.7,31.7H563.5a31.7,31.7,0,0,0,31.7-31.7V202.865h2Z" transform="translate(-285.056 -77.403)" fill="#3f3d56"/>
    <path id="Tracé_23" data-name="Tracé 23" d="M597.206,117.572V417.617a23.675,23.675,0,0,1-23.675,23.675h-116.6a23.675,23.675,0,0,1-23.675-23.675V117.572A23.675,23.675,0,0,1,456.931,93.9h14.145a11.253,11.253,0,0,0,10.415,15.495h66.48A11.253,11.253,0,0,0,558.386,93.9h15.145a23.675,23.675,0,0,1,23.675,23.675Z" transform="translate(-293.804 -85.65)" fill="#fff"/>
    <path id="Tracé_24" data-name="Tracé 24" d="M642.855,388.433q-1.163.607-2.365,1.15-1.095.5-2.225.93c-.275.1-.555.21-.835.315a44.76,44.76,0,0,1-6.8,1.875q-1.718.337-3.48.53-1.455.165-2.94.235c-.705.035-1.41.05-2.12.05a44.923,44.923,0,0,1-8.38-.785c-.72-.13-1.425-.285-2.13-.455a44.388,44.388,0,0,1-9.835-3.63c-.28-.14-.56-.29-.84-.435-.415-.22-.82-.45-1.225-.69.195-.27.405-.535.62-.8a26.517,26.517,0,0,1,39.435-2.05,27.148,27.148,0,0,1,2.53,2.93C642.47,387.878,642.665,388.153,642.855,388.433Z" transform="translate(-377.016 -227.133)" fill="#fb0"/>
    <path id="Tracé_26" data-name="Tracé 26" d="M599.5,230.173a44.993,44.993,0,0,0-23.42,83.415l.29.17q.36.218.72.42c.405.24.81.47,1.225.69.28.145.56.3.84.435a44.387,44.387,0,0,0,9.835,3.63c.705.17,1.41.325,2.13.455a44.919,44.919,0,0,0,8.38.785c.71,0,1.415-.015,2.12-.05q1.485-.067,2.94-.235,1.763-.2,3.48-.53a44.763,44.763,0,0,0,6.8-1.875c.28-.1.56-.21.835-.315q1.132-.435,2.225-.93,1.2-.54,2.365-1.15A45.4,45.4,0,0,0,638.78,297.1c.02-.04.045-.08.065-.12a45,45,0,0,0-39.35-66.81Zm38.53,66.225c-.04.07-.075.14-.115.205a44.086,44.086,0,0,1-18.24,17.66q-1.148.6-2.335,1.125c-.655.295-1.325.575-2,.835-.285.11-.575.22-.865.32a42.865,42.865,0,0,1-5.865,1.68,42.342,42.342,0,0,1-4.475.705c-.925.1-1.865.17-2.81.2-.605.025-1.215.04-1.825.04a43.381,43.381,0,0,1-8.11-.755,42.816,42.816,0,0,1-4.815-1.18,44.233,44.233,0,0,1-6.995-2.835c-.26-.135-.52-.27-.775-.41-.365-.2-.735-.395-1.095-.61-.27-.15-.54-.31-.8-.47-.155-.09-.31-.185-.465-.28a44.034,44.034,0,1,1,61.59-16.235Z" transform="translate(-354.421 -153.788)" fill="#3f3d56"/>
    <g id="head-1">
      <circle id="Ellipse_5" data-name="Ellipse 5" cx="21.955" cy="21.955" r="21.955" transform="translate(224.117 95.427)" fill="#2f2e41"/>
      <circle id="Ellipse_6" data-name="Ellipse 6" cx="16.34" cy="16.34" r="16.34" transform="translate(221.896 118.529) rotate(-28.663)" fill="#a0616a"/>
      <path id="Tracé_25" data-name="Tracé 25" d="M644.977,298.156a22.224,22.224,0,0,1-12.7,3.925,13.619,13.619,0,0,0,5.4,2.221,44.814,44.814,0,0,1-18.3.1,11.848,11.848,0,0,1-3.832-1.316,4.849,4.849,0,0,1-2.365-3.163c-.4-2.294,1.386-4.379,3.244-5.783a23.929,23.929,0,0,1,20.108-4.018,11.012,11.012,0,0,1,5.955,3.365c1.459,1.8,1.891,4.585.5,6.442Z" transform="translate(-383.733 -183.404)" fill="#2f2e41"/>
      <path id="Tracé_27" data-name="Tracé 27" d="M614,265.408c-.236-2.484-3.279-4.013-5.659-3.263s-3.942,3.146-4.414,5.6a8.029,8.029,0,0,0,1.083,6.061,5.523,5.523,0,0,0,5.475,2.372c2.354-.5,3.984-2.8,4.451-5.161a18.661,18.661,0,0,0-.459-7.156Z" transform="translate(-379.045 -169.678)" fill="#2f2e41"/>
      <path id="Tracé_28" data-name="Tracé 28" d="M680.981,272.505c-.236-2.484-3.279-4.013-5.659-3.263s-3.942,3.146-4.414,5.6a8.028,8.028,0,0,0,1.083,6.061,5.524,5.524,0,0,0,5.475,2.372c2.354-.5,3.984-2.8,4.451-5.161a18.658,18.658,0,0,0-.459-7.156Z" transform="translate(-412.536 -173.227)" fill="#2f2e41"/>
    </g>
    <path id="Tracé_30" data-name="Tracé 30" d="M321.644,265.079a2.238,2.238,0,0,1-1.653-.732L295.18,237.28a3.01,3.01,0,0,0-2.213-.974H161.857a7.513,7.513,0,0,1-7.5-7.5V181.52a7.513,7.513,0,0,1,7.5-7.5H331.72a7.513,7.513,0,0,1,7.5,7.5V228.8a7.513,7.513,0,0,1-7.5,7.5H326.9a3.006,3.006,0,0,0-3,3v23.517a2.237,2.237,0,0,1-1.435,2.1A2.263,2.263,0,0,1,321.644,265.079ZM161.857,175.016a6.512,6.512,0,0,0-6.5,6.5V228.8a6.512,6.512,0,0,0,6.5,6.5H292.967a4.012,4.012,0,0,1,2.95,1.3l24.811,27.067a1.251,1.251,0,0,0,2.174-.845V239.309a4.007,4.007,0,0,1,4-4h4.816a6.512,6.512,0,0,0,6.5-6.5V181.52a6.512,6.512,0,0,0-6.5-6.5Z" transform="translate(-154.353 -125.709)" fill="#3f3d56"/>
    <g id="chat-bullet-1">
      <path id="Tracé_29" data-name="Tracé 29" d="M321.644,265.079a2.238,2.238,0,0,1-1.653-.732L295.18,237.28a3.01,3.01,0,0,0-2.213-.974H161.857a7.513,7.513,0,0,1-7.5-7.5V181.52a7.513,7.513,0,0,1,7.5-7.5H331.72a7.513,7.513,0,0,1,7.5,7.5V228.8a7.513,7.513,0,0,1-7.5,7.5H326.9a3.006,3.006,0,0,0-3,3v23.517a2.237,2.237,0,0,1-1.435,2.1A2.263,2.263,0,0,1,321.644,265.079Z" transform="translate(-154.353 -125.709)" fill="#fff" stroke="#707070" stroke-width="1"/>
      <circle id="Ellipse_7" data-name="Ellipse 7" cx="6.567" cy="6.567" r="6.567" transform="translate(11.841 56.03)" fill="#fb0"/>
      <path id="Tracé_31" data-name="Tracé 31" d="M335.722,268.264H181.182a3.5,3.5,0,1,1,0-7h154.54a3.5,3.5,0,0,1,0,7Z" transform="translate(-166.016 -169.331)" fill="#e6e6e6"/>
      <path id="Tracé_32" data-name="Tracé 32" d="M285.376,238.5H181.182a3.5,3.5,0,1,1,0-7H285.376a3.5,3.5,0,0,1,0,7Z" transform="translate(-166.016 -154.447)" fill="#e6e6e6"/>
    </g>
    <path id="Tracé_34" data-name="Tracé 34" d="M692.661,585.923a2.237,2.237,0,0,1-1.435-2.1V560.309a3.006,3.006,0,0,0-3-3h-4.816a7.513,7.513,0,0,1-7.5-7.5V502.521a7.513,7.513,0,0,1,7.5-7.5H853.272a7.513,7.513,0,0,1,7.5,7.5V549.8a7.513,7.513,0,0,1-7.5,7.5H722.161a3.01,3.01,0,0,0-2.213.974l-24.811,27.067a2.238,2.238,0,0,1-1.653.732A2.263,2.263,0,0,1,692.661,585.923Zm-9.253-89.907a6.512,6.512,0,0,0-6.5,6.5V549.8a6.512,6.512,0,0,0,6.5,6.5h4.816a4.007,4.007,0,0,1,4,4v23.517a1.251,1.251,0,0,0,2.174.846L719.211,557.6a4.012,4.012,0,0,1,2.95-1.3h131.11a6.512,6.512,0,0,0,6.5-6.5V502.521a6.512,6.512,0,0,0-6.5-6.5Z" transform="translate(-415.128 -286.209)" fill="#3f3d56"/>
    <path id="Tracé_35" data-name="Tracé 35" d="M556.7,692.663a44.534,44.534,0,0,1-46.825.745,27.064,27.064,0,0,1,4.7-6.325,26.716,26.716,0,0,1,41.955,5.285C556.59,692.463,556.65,692.563,556.7,692.663Z" transform="translate(-332.116 -378.307)" fill="#fb0"/>
    <g id="head-2">
      <circle id="Ellipse_8" data-name="Ellipse 8" cx="22.101" cy="22.101" r="22.101" transform="translate(177.121 246.243)" fill="#2f2e41"/>
      <circle id="Ellipse_9" data-name="Ellipse 9" cx="16.449" cy="16.449" r="16.449" transform="translate(178.909 282.588) rotate(-61.337)" fill="#ffb8b8"/>
      <path id="Tracé_36" data-name="Tracé 36" d="M522.25,599.987a22.372,22.372,0,0,0,12.785,3.951,13.71,13.71,0,0,1-5.434,2.235,45.112,45.112,0,0,0,18.427.1,11.926,11.926,0,0,0,3.857-1.325,4.882,4.882,0,0,0,2.381-3.184c.4-2.31-1.4-4.408-3.266-5.822a24.088,24.088,0,0,0-20.242-4.045,11.085,11.085,0,0,0-5.995,3.388c-1.469,1.816-1.9,4.615-.5,6.485Z" transform="translate(-338.301 -334.291)" fill="#2f2e41"/>
    </g>
    <path id="Tracé_37" data-name="Tracé 37" d="M510.524,631.194a44.986,44.986,0,1,1,24.285-7.109,44.986,44.986,0,0,1-24.285,7.109Zm0-89a44,44,0,1,0,44,44,44.005,44.005,0,0,0-44-44Z" transform="translate(-309.95 -309.309)" fill="#3f3d56"/>
    <g id="chat-bubble-2">
      <path id="Tracé_33" data-name="Tracé 33" d="M692.661,585.923a2.237,2.237,0,0,1-1.435-2.1V560.309a3.006,3.006,0,0,0-3-3h-4.816a7.513,7.513,0,0,1-7.5-7.5V502.521a7.513,7.513,0,0,1,7.5-7.5H853.272a7.513,7.513,0,0,1,7.5,7.5V549.8a7.513,7.513,0,0,1-7.5,7.5H722.161a3.01,3.01,0,0,0-2.213.974l-24.811,27.067a2.238,2.238,0,0,1-1.653.732A2.263,2.263,0,0,1,692.661,585.923Z" transform="translate(-415.128 -286.209)" fill="#fff" stroke="#707070" stroke-width="1"/>
      <circle id="Ellipse_10" data-name="Ellipse 10" cx="6.567" cy="6.567" r="6.567" transform="translate(275.341 216.03)" fill="#fb0"/>
      <path id="Tracé_38" data-name="Tracé 38" d="M862.72,588.264H708.182a3.5,3.5,0,0,1,0-7h154.54a3.5,3.5,0,0,1,0,7Z" transform="translate(-429.516 -329.331)" fill="#e6e6e6"/>
      <path id="Tracé_39" data-name="Tracé 39" d="M812.376,558.5H708.182a3.5,3.5,0,0,1,0-7H812.376a3.5,3.5,0,0,1,0,7Z" transform="translate(-429.516 -314.447)" fill="#e6e6e6"/>
    </g>
    <ellipse id="Ellipse_11" data-name="Ellipse 11" cx="12.252" cy="1.36" rx="12.252" ry="1.36" transform="translate(265.07 301.471)" fill="#f2f2f2"/>
    <ellipse id="Ellipse_12" data-name="Ellipse 12" cx="12.252" cy="1.36" rx="12.252" ry="1.36" transform="translate(155.57 141.471)" fill="#f2f2f2"/>
  </g>
</svg>
